# xmcd
#
# Track frame offsets:
# 150
# 15268
# 27306
# 41369
# 57482
# 70559
# 85264
# 99818
# 112208
# 124287
# 142072
# 157787
# 173116
# 191051
# 205656
# 222287
#
# Disc length: 3169 seconds
#
#
# Revision: 0
# Processed by: cddbd v1.5.1PL2 Copyright (c) Steve Scherf et al.
# Submitted via: FreeRIP 2.90 
#
DISCID=d60c5f10
DTITLE=Francis Lopes - Volume 12
DYEAR=2005
DGENRE=Country
TTITLE0=Tudo por uma mulher
TTITLE1=Vanerão arrochado
TTITLE2=Gostosa
TTITLE3=Mexe o bumbum
TTITLE4=Menina
TTITLE5=Na bundinha
TTITLE6=É hoje
TTITLE7=E tome forró
TTITLE8=Me dá a tua mão
TTITLE9=Obrigado meu senhor
TTITLE10=Te amo.. que mais posso dizer
TTITLE11=Porque brigamos
TTITLE12=Me sinto só
TTITLE13=Alma gêmea
TTITLE14=Cansei de perder
TTITLE15=Pula Pula
EXTD=
EXTT0=
EXTT1=
EXTT2=
EXTT3=
EXTT4=
EXTT5=
EXTT6=
EXTT7=
EXTT8=
EXTT9=
EXTT10=
EXTT11=
EXTT12=
EXTT13=
EXTT14=
EXTT15=
PLAYORDER=
